  0
SECTION
  2
HEADER
  9
$ACADVER
  1
AC1014
  9
$HANDSEED
  5
FFFF
  9
$INSUNITS
 70
     4
  9
$MEASUREMENT
 70
     1
  0
ENDSEC
  0
SECTION
  2
TABLES
  0
TABLE
  2
VPORT
  5
8
330
0
100
AcDbSymbolTable
 70
     4
  0
VPORT
  5
2E
330
8
100
AcDbSymbolTableRecord
100
AcDbViewportTableRecord
  2
*ACTIVE
 70
     0
 10
0.0
 20
0.0
 11
1.0
 21
1.0
 12
210.0
 22
148.5
 13
0.0
 23
0.0
 14
10.0
 24
10.0
 15
10.0
 25
10.0
 16
0.0
 26
0.0
 36
1.0
 17
0.0
 27
0.0
 37
0.0
 40
341.0
 41
1.24
 42
50.0
 43
0.0
 44
0.0
 50
0.0
 51
0.0
 71
     0
 72
   100
 73
     1
 74
     3
 75
     0
 76
     0
 77
     0
 78
     0
  0
ENDTAB
  0
TABLE
  2
LTYPE
  5
5
330
0
100
AcDbSymbolTable
 70
     1
  0
LTYPE
  5
14
330
5
100
AcDbSymbolTableRecord
100
AcDbLinetypeTableRecord
  2
BYBLOCK
 70
     0
  3

 72
    65
 73
     0
 40
0.0
  0
LTYPE
  5
15
330
5
100
AcDbSymbolTableRecord
100
AcDbLinetypeTableRecord
  2
BYLAYER
 70
     0
  3

 72
    65
 73
     0
 40
0.0
  0
LTYPE
  5
16
330
5
100
AcDbSymbolTableRecord
100
AcDbLinetypeTableRecord
  2
CONTINUOUS
 70
     0
  3
Solid line
 72
    65
 73
     0
 40
0.0
  0
ENDTAB
  0
TABLE
  2
LAYER
  5
2
100
AcDbSymbolTable
 70
1
  0
LAYER
  5
50
100
AcDbSymbolTableRecord
100
AcDbLayerTableRecord
  2
0
 70
0
  6
CONTINUOUS
  0
ENDTAB
  0
TABLE
  2
STYLE
  5
3
330
0
100
AcDbSymbolTable
 70
     1
  0
STYLE
  5
11
330
3
100
AcDbSymbolTableRecord
100
AcDbTextStyleTableRecord
  2
STANDARD
 70
     0
 40
0.0
 41
1.0
 50
0.0
 71
     0
 42
2.5
  3
txt
  4

  0
ENDTAB
  0
TABLE
  2
VIEW
  5
6
330
0
100
AcDbSymbolTable
 70
     0
  0
ENDTAB
  0
TABLE
  2
UCS
  5
7
330
0
100
AcDbSymbolTable
 70
     0
  0
ENDTAB
  0
TABLE
  2
APPID
  5
9
330
0
100
AcDbSymbolTable
 70
     2
  0
APPID
  5
12
330
9
100
AcDbSymbolTableRecord
100
AcDbRegAppTableRecord
  2
ACAD
 70
     0
  0
ENDTAB
  0
TABLE
  2
DIMSTYLE
  5
A
330
0
100
AcDbSymbolTable
 70
     1
  0
DIMSTYLE
105
27
330
A
100
AcDbSymbolTableRecord
100
AcDbDimStyleTableRecord
  2
ISO-25
 70
     0
  3

  4

  5

  6

  7

 40
1.0
 41
2.5
 42
0.625
 43
3.75
 44
1.25
 45
0.0
 46
0.0
 47
0.0
 48
0.0
140
2.5
141
2.5
142
0.0
143
0.03937007874016
144
1.0
145
0.0
146
1.0
147
0.625
 71
     0
 72
     0
 73
     0
 74
     0
 75
     0
 76
     0
 77
     1
 78
     8
170
     0
171
     3
172
     1
173
     0
174
     0
175
     0
176
     0
177
     0
178
     0
270
     2
271
     2
272
     2
273
     2
274
     3
340
11
275
     0
280
     0
281
     0
282
     0
283
     0
284
     8
285
     0
286
     0
287
     3
288
     0
  0
ENDTAB
  0
TABLE
  2
BLOCK_RECORD
  5
1
330
0
100
AcDbSymbolTable
 70
     1
  0
BLOCK_RECORD
  5
1F
330
1
100
AcDbSymbolTableRecord
100
AcDbBlockTableRecord
  2
*MODEL_SPACE
  0
BLOCK_RECORD
  5
1B
330
1
100
AcDbSymbolTableRecord
100
AcDbBlockTableRecord
  2
*PAPER_SPACE
  0
ENDTAB
  0
ENDSEC
  0
SECTION
  2
BLOCKS
  0
BLOCK
  5
20
330
1F
100
AcDbEntity
  8
0
100
AcDbBlockBegin
  2
*MODEL_SPACE
 70
     0
 10
0.0
 20
0.0
 30
0.0
  3
*MODEL_SPACE
  1

  0
ENDBLK
  5
21
330
1F
100
AcDbEntity
  8
0
100
AcDbBlockEnd
  0
BLOCK
  5
1C
330
1B
100
AcDbEntity
 67
     1
  8
0
100
AcDbBlockBegin
  2
*PAPER_SPACE
  1

  0
ENDBLK
  5
1D
330
1B
100
AcDbEntity
 67
     1
  8
0
100
AcDbBlockEnd
  0
ENDSEC
  0
SECTION
  2
ENTITIES
  0
SPLINE
  5
100
100
AcDbEntity
  8
0
 62
7
100
AcDbSpline
 70
8
 71
3
 72
8
 73
4
 74
0
 40
0
 40
0
 40
0
 40
0
 40
1
 40
1
 40
1
 40
1
 10
80.245690
 20
724.598797
 30
0.0
 10
80.245690
 20
722.556453
 30
0.0
 10
78.592631
 20
720.914568
 30
0.0
 10
76.566300
 20
720.914568
 30
0.0
  0
SPLINE
  5
101
100
AcDbEntity
  8
0
 62
7
100
AcDbSpline
 70
8
 71
3
 72
8
 73
4
 74
0
 40
0
 40
0
 40
0
 40
0
 40
1
 40
1
 40
1
 40
1
 10
76.566300
 20
720.914568
 30
0.0
 10
74.526638
 20
720.914568
 30
0.0
 10
72.886910
 20
722.569801
 30
0.0
 10
72.886910
 20
724.598797
 30
0.0
  0
SPLINE
  5
102
100
AcDbEntity
  8
0
 62
7
100
AcDbSpline
 70
8
 71
3
 72
8
 73
4
 74
0
 40
0
 40
0
 40
0
 40
0
 40
1
 40
1
 40
1
 40
1
 10
72.886910
 20
724.598797
 30
0.0
 10
72.886910
 20
726.641142
 30
0.0
 10
74.539969
 20
728.283027
 30
0.0
 10
76.566300
 20
728.283027
 30
0.0
  0
SPLINE
  5
103
100
AcDbEntity
  8
0
 62
7
100
AcDbSpline
 70
8
 71
3
 72
8
 73
4
 74
0
 40
0
 40
0
 40
0
 40
0
 40
1
 40
1
 40
1
 40
1
 10
76.566300
 20
728.283027
 30
0.0
 10
78.592631
 20
728.296376
 30
0.0
 10
80.245690
 20
726.641142
 30
0.0
 10
80.245690
 20
724.598797
 30
0.0
  0
LWPOLYLINE
  5
104
100
AcDbEntity
  8
0
 62
7
100
AcDbPolyline
 90
2
 70
0
 10
283.052087
 20
517.040504
 30
0.0
 10
283.052087
 20
526.010936
 30
0.0
  0
SPLINE
  5
105
100
AcDbEntity
  8
0
 62
7
100
AcDbSpline
 70
8
 71
3
 72
8
 73
4
 74
0
 40
0
 40
0
 40
0
 40
0
 40
1
 40
1
 40
1
 40
1
 10
220.542458
 20
674.461249
 30
0.0
 10
219.054283
 20
674.461249
 30
0.0
 10
217.712644
 20
673.563615
 30
0.0
 10
217.143144
 20
672.186913
 30
0.0
  0
SPLINE
  5
106
100
AcDbEntity
  8
0
 62
7
100
AcDbSpline
 70
8
 71
3
 72
8
 73
4
 74
0
 40
0
 40
0
 40
0
 40
0
 40
1
 40
1
 40
1
 40
1
 10
217.143144
 20
672.186913
 30
0.0
 10
216.573645
 20
670.810210
 30
0.0
 10
216.888438
 20
669.225557
 30
0.0
 10
217.940736
 20
668.171875
 30
0.0
  0
SPLINE
  5
107
100
AcDbEntity
  8
0
 62
7
100
AcDbSpline
 70
8
 71
3
 72
8
 73
4
 74
0
 40
0
 40
0
 40
0
 40
0
 40
1
 40
1
 40
1
 40
1
 10
217.940736
 20
668.171875
 30
0.0
 10
218.993034
 20
667.118193
 30
0.0
 10
220.575606
 20
666.802986
 30
0.0
 10
221.950500
 20
667.373234
 30
0.0
  0
SPLINE
  5
108
100
AcDbEntity
  8
0
 62
7
100
AcDbSpline
 70
8
 71
3
 72
8
 73
4
 74
0
 40
0
 40
0
 40
0
 40
0
 40
1
 40
1
 40
1
 40
1
 10
221.950500
 20
667.373234
 30
0.0
 10
223.325394
 20
667.943483
 30
0.0
 10
224.221848
 20
669.286887
 30
0.0
 10
224.221848
 20
670.777019
 30
0.0
  0
SPLINE
  5
109
100
AcDbEntity
  8
0
 62
7
100
AcDbSpline
 70
8
 71
3
 72
8
 73
4
 74
0
 40
0
 40
0
 40
0
 40
0
 40
1
 40
1
 40
1
 40
1
 10
224.221848
 20
670.777019
 30
0.0
 10
224.221848
 20
671.754137
 30
0.0
 10
223.834199
 20
672.691236
 30
0.0
 10
223.144180
 20
673.382163
 30
0.0
  0
SPLINE
  5
10a
100
AcDbEntity
  8
0
 62
7
100
AcDbSpline
 70
8
 71
3
 72
8
 73
4
 74
0
 40
0
 40
0
 40
0
 40
0
 40
1
 40
1
 40
1
 40
1
 10
223.144180
 20
673.382163
 30
0.0
 10
222.454160
 20
674.073090
 30
0.0
 10
221.518293
 20
674.461249
 30
0.0
 10
220.542458
 20
674.461249
 30
0.0
  0
LWPOLYLINE
  5
10b
100
AcDbEntity
  8
0
 62
7
100
AcDbPolyline
 90
1
 70
1
 10
80.245690
 20
724.598797
 30
0.0
  0
SPLINE
  5
10c
100
AcDbEntity
  8
0
 62
7
100
AcDbSpline
 70
8
 71
3
 72
8
 73
4
 74
0
 40
0
 40
0
 40
0
 40
0
 40
1
 40
1
 40
1
 40
1
 10
200.705731
 20
818.786933
 30
0.0
 10
200.705731
 20
816.744588
 30
0.0
 10
199.052672
 20
815.102703
 30
0.0
 10
197.026341
 20
815.102703
 30
0.0
  0
SPLINE
  5
10d
100
AcDbEntity
  8
0
 62
7
100
AcDbSpline
 70
8
 71
3
 72
8
 73
4
 74
0
 40
0
 40
0
 40
0
 40
0
 40
1
 40
1
 40
1
 40
1
 10
197.026341
 20
815.102703
 30
0.0
 10
194.986679
 20
815.102703
 30
0.0
 10
193.346951
 20
816.757937
 30
0.0
 10
193.346951
 20
818.786933
 30
0.0
  0
SPLINE
  5
10e
100
AcDbEntity
  8
0
 62
7
100
AcDbSpline
 70
8
 71
3
 72
8
 73
4
 74
0
 40
0
 40
0
 40
0
 40
0
 40
1
 40
1
 40
1
 40
1
 10
193.346951
 20
818.786933
 30
0.0
 10
193.346951
 20
820.829278
 30
0.0
 10
195.000010
 20
822.471163
 30
0.0
 10
197.026341
 20
822.471163
 30
0.0
  0
SPLINE
  5
10f
100
AcDbEntity
  8
0
 62
7
100
AcDbSpline
 70
8
 71
3
 72
8
 73
4
 74
0
 40
0
 40
0
 40
0
 40
0
 40
1
 40
1
 40
1
 40
1
 10
197.026341
 20
822.471163
 30
0.0
 10
199.052672
 20
822.484511
 30
0.0
 10
200.705731
 20
820.829278
 30
0.0
 10
200.705731
 20
818.786933
 30
0.0
  0
LWPOLYLINE
  5
110
100
AcDbEntity
  8
0
 62
7
100
AcDbPolyline
 90
1
 70
1
 10
220.542458
 20
674.461249
 30
0.0
  0
SPLINE
  5
111
100
AcDbEntity
  8
0
 62
7
100
AcDbSpline
 70
8
 71
3
 72
8
 73
4
 74
0
 40
0
 40
0
 40
0
 40
0
 40
1
 40
1
 40
1
 40
1
 10
76.566297
 20
511.073653
 30
0.0
 10
75.078123
 20
511.073653
 30
0.0
 10
73.736484
 20
510.176019
 30
0.0
 10
73.166984
 20
508.799317
 30
0.0
  0
SPLINE
  5
112
100
AcDbEntity
  8
0
 62
7
100
AcDbSpline
 70
8
 71
3
 72
8
 73
4
 74
0
 40
0
 40
0
 40
0
 40
0
 40
1
 40
1
 40
1
 40
1
 10
73.166984
 20
508.799317
 30
0.0
 10
72.597484
 20
507.422615
 30
0.0
 10
72.912277
 20
505.837962
 30
0.0
 10
73.964576
 20
504.784280
 30
0.0
  0
SPLINE
  5
113
100
AcDbEntity
  8
0
 62
7
100
AcDbSpline
 70
8
 71
3
 72
8
 73
4
 74
0
 40
0
 40
0
 40
0
 40
0
 40
1
 40
1
 40
1
 40
1
 10
73.964576
 20
504.784280
 30
0.0
 10
75.016874
 20
503.730597
 30
0.0
 10
76.599445
 20
503.415390
 30
0.0
 10
77.974339
 20
503.985639
 30
0.0
  0
SPLINE
  5
114
100
AcDbEntity
  8
0
 62
7
100
AcDbSpline
 70
8
 71
3
 72
8
 73
4
 74
0
 40
0
 40
0
 40
0
 40
0
 40
1
 40
1
 40
1
 40
1
 10
77.974339
 20
503.985639
 30
0.0
 10
79.349233
 20
504.555888
 30
0.0
 10
80.245688
 20
505.899292
 30
0.0
 10
80.245688
 20
507.389423
 30
0.0
  0
SPLINE
  5
115
100
AcDbEntity
  8
0
 62
7
100
AcDbSpline
 70
8
 71
3
 72
8
 73
4
 74
0
 40
0
 40
0
 40
0
 40
0
 40
1
 40
1
 40
1
 40
1
 10
80.245688
 20
507.389423
 30
0.0
 10
80.245688
 20
508.366542
 30
0.0
 10
79.858039
 20
509.303640
 30
0.0
 10
79.168019
 20
509.994567
 30
0.0
  0
SPLINE
  5
116
100
AcDbEntity
  8
0
 62
7
100
AcDbSpline
 70
8
 71
3
 72
8
 73
4
 74
0
 40
0
 40
0
 40
0
 40
0
 40
1
 40
1
 40
1
 40
1
 10
79.168019
 20
509.994567
 30
0.0
 10
78.478000
 20
510.685494
 30
0.0
 10
77.542132
 20
511.073653
 30
0.0
 10
76.566297
 20
511.073653
 30
0.0
  0
LWPOLYLINE
  5
117
100
AcDbEntity
  8
0
 62
7
100
AcDbPolyline
 90
1
 70
1
 10
200.705731
 20
818.786933
 30
0.0
  0
SPLINE
  5
118
100
AcDbEntity
  8
0
 62
7
100
AcDbSpline
 70
8
 71
3
 72
8
 73
4
 74
0
 40
0
 40
0
 40
0
 40
0
 40
1
 40
1
 40
1
 40
1
 10
226.141517
 20
536.222526
 30
0.0
 10
226.141517
 20
534.180181
 30
0.0
 10
224.488457
 20
532.538296
 30
0.0
 10
222.462126
 20
532.538296
 30
0.0
  0
SPLINE
  5
119
100
AcDbEntity
  8
0
 62
7
100
AcDbSpline
 70
8
 71
3
 72
8
 73
4
 74
0
 40
0
 40
0
 40
0
 40
0
 40
1
 40
1
 40
1
 40
1
 10
222.462126
 20
532.538296
 30
0.0
 10
220.422464
 20
532.538296
 30
0.0
 10
218.782736
 20
534.193530
 30
0.0
 10
218.782736
 20
536.222526
 30
0.0
  0
SPLINE
  5
11a
100
AcDbEntity
  8
0
 62
7
100
AcDbSpline
 70
8
 71
3
 72
8
 73
4
 74
0
 40
0
 40
0
 40
0
 40
0
 40
1
 40
1
 40
1
 40
1
 10
218.782736
 20
536.222526
 30
0.0
 10
218.782736
 20
538.264871
 30
0.0
 10
220.435796
 20
539.906756
 30
0.0
 10
222.462126
 20
539.906756
 30
0.0
  0
SPLINE
  5
11b
100
AcDbEntity
  8
0
 62
7
100
AcDbSpline
 70
8
 71
3
 72
8
 73
4
 74
0
 40
0
 40
0
 40
0
 40
0
 40
1
 40
1
 40
1
 40
1
 10
222.462126
 20
539.906756
 30
0.0
 10
224.488457
 20
539.920105
 30
0.0
 10
226.141517
 20
538.264871
 30
0.0
 10
226.141517
 20
536.222526
 30
0.0
  0
LWPOLYLINE
  5
11c
100
AcDbEntity
  8
0
 62
7
100
AcDbPolyline
 90
1
 70
1
 10
76.566297
 20
511.073653
 30
0.0
  0
SPLINE
  5
11d
100
AcDbEntity
  8
0
 62
7
100
AcDbSpline
 70
8
 71
3
 72
8
 73
4
 74
0
 40
0
 40
0
 40
0
 40
0
 40
1
 40
1
 40
1
 40
1
 10
417.629789
 20
508.350527
 30
0.0
 10
417.629789
 20
506.308182
 30
0.0
 10
415.976729
 20
504.666297
 30
0.0
 10
413.950399
 20
504.666297
 30
0.0
  0
SPLINE
  5
11e
100
AcDbEntity
  8
0
 62
7
100
AcDbSpline
 70
8
 71
3
 72
8
 73
4
 74
0
 40
0
 40
0
 40
0
 40
0
 40
1
 40
1
 40
1
 40
1
 10
413.950399
 20
504.666297
 30
0.0
 10
411.910737
 20
504.666297
 30
0.0
 10
410.271008
 20
506.321531
 30
0.0
 10
410.271008
 20
508.350527
 30
0.0
  0
SPLINE
  5
11f
100
AcDbEntity
  8
0
 62
7
100
AcDbSpline
 70
8
 71
3
 72
8
 73
4
 74
0
 40
0
 40
0
 40
0
 40
0
 40
1
 40
1
 40
1
 40
1
 10
410.271008
 20
508.350527
 30
0.0
 10
410.271008
 20
510.392872
 30
0.0
 10
411.924068
 20
512.034757
 30
0.0
 10
413.950399
 20
512.034757
 30
0.0
  0
SPLINE
  5
120
100
AcDbEntity
  8
0
 62
7
100
AcDbSpline
 70
8
 71
3
 72
8
 73
4
 74
0
 40
0
 40
0
 40
0
 40
0
 40
1
 40
1
 40
1
 40
1
 10
413.950399
 20
512.034757
 30
0.0
 10
415.976729
 20
512.048105
 30
0.0
 10
417.629789
 20
510.392872
 30
0.0
 10
417.629789
 20
508.350527
 30
0.0
  0
LWPOLYLINE
  5
121
100
AcDbEntity
  8
0
 62
7
100
AcDbPolyline
 90
1
 70
1
 10
226.141517
 20
536.222526
 30
0.0
  0
SPLINE
  5
122
100
AcDbEntity
  8
0
 62
7
100
AcDbSpline
 70
8
 71
3
 72
8
 73
4
 74
0
 40
0
 40
0
 40
0
 40
0
 40
1
 40
1
 40
1
 40
1
 10
440.186052
 20
734.209832
 30
0.0
 10
440.186052
 20
732.167487
 30
0.0
 10
438.532992
 20
730.525602
 30
0.0
 10
436.506661
 20
730.525602
 30
0.0
  0
SPLINE
  5
123
100
AcDbEntity
  8
0
 62
7
100
AcDbSpline
 70
8
 71
3
 72
8
 73
4
 74
0
 40
0
 40
0
 40
0
 40
0
 40
1
 40
1
 40
1
 40
1
 10
436.506661
 20
730.525602
 30
0.0
 10
434.466999
 20
730.525602
 30
0.0
 10
432.827271
 20
732.180835
 30
0.0
 10
432.827271
 20
734.209832
 30
0.0
  0
SPLINE
  5
124
100
AcDbEntity
  8
0
 62
7
100
AcDbSpline
 70
8
 71
3
 72
8
 73
4
 74
0
 40
0
 40
0
 40
0
 40
0
 40
1
 40
1
 40
1
 40
1
 10
432.827271
 20
734.209832
 30
0.0
 10
432.827271
 20
736.252176
 30
0.0
 10
434.480330
 20
737.894061
 30
0.0
 10
436.506661
 20
737.894061
 30
0.0
  0
SPLINE
  5
125
100
AcDbEntity
  8
0
 62
7
100
AcDbSpline
 70
8
 71
3
 72
8
 73
4
 74
0
 40
0
 40
0
 40
0
 40
0
 40
1
 40
1
 40
1
 40
1
 10
436.506661
 20
737.894061
 30
0.0
 10
438.532992
 20
737.907410
 30
0.0
 10
440.186052
 20
736.252176
 30
0.0
 10
440.186052
 20
734.209832
 30
0.0
  0
LWPOLYLINE
  5
126
100
AcDbEntity
  8
0
 62
7
100
AcDbPolyline
 90
1
 70
1
 10
417.629789
 20
508.350527
 30
0.0
  0
SPLINE
  5
127
100
AcDbEntity
  8
0
 62
7
100
AcDbSpline
 70
8
 71
3
 72
8
 73
4
 74
0
 40
0
 40
0
 40
0
 40
0
 40
1
 40
1
 40
1
 40
1
 10
525.091983
 20
518.121745
 30
0.0
 10
525.091983
 20
516.079400
 30
0.0
 10
523.438924
 20
514.437515
 30
0.0
 10
521.412593
 20
514.437515
 30
0.0
  0
SPLINE
  5
128
100
AcDbEntity
  8
0
 62
7
100
AcDbSpline
 70
8
 71
3
 72
8
 73
4
 74
0
 40
0
 40
0
 40
0
 40
0
 40
1
 40
1
 40
1
 40
1
 10
521.412593
 20
514.437515
 30
0.0
 10
519.372931
 20
514.437515
 30
0.0
 10
517.733203
 20
516.092749
 30
0.0
 10
517.733203
 20
518.121745
 30
0.0
  0
SPLINE
  5
129
100
AcDbEntity
  8
0
 62
7
100
AcDbSpline
 70
8
 71
3
 72
8
 73
4
 74
0
 40
0
 40
0
 40
0
 40
0
 40
1
 40
1
 40
1
 40
1
 10
517.733203
 20
518.121745
 30
0.0
 10
517.733203
 20
520.164090
 30
0.0
 10
519.386262
 20
521.805975
 30
0.0
 10
521.412593
 20
521.805975
 30
0.0
  0
SPLINE
  5
12a
100
AcDbEntity
  8
0
 62
7
100
AcDbSpline
 70
8
 71
3
 72
8
 73
4
 74
0
 40
0
 40
0
 40
0
 40
0
 40
1
 40
1
 40
1
 40
1
 10
521.412593
 20
521.805975
 30
0.0
 10
523.438924
 20
521.819323
 30
0.0
 10
525.091983
 20
520.164090
 30
0.0
 10
525.091983
 20
518.121745
 30
0.0
  0
LWPOLYLINE
  5
12b
100
AcDbEntity
  8
0
 62
7
100
AcDbPolyline
 90
1
 70
1
 10
440.186052
 20
734.209832
 30
0.0
  0
SPLINE
  5
12c
100
AcDbEntity
  8
0
 62
7
100
AcDbSpline
 70
8
 71
3
 72
8
 73
4
 74
0
 40
0
 40
0
 40
0
 40
0
 40
1
 40
1
 40
1
 40
1
 10
510.387753
 20
563.734112
 30
0.0
 10
510.387753
 20
559.569330
 30
0.0
 10
512.640713
 20
553.615828
 30
0.0
 10
515.400256
 20
550.505591
 30
0.0
  0
LWPOLYLINE
  5
12d
100
AcDbEntity
  8
0
 62
7
100
AcDbPolyline
 90
1
 70
1
 10
525.091983
 20
518.121745
 30
0.0
  0
SPLINE
  5
12e
100
AcDbEntity
  8
0
 62
7
100
AcDbSpline
 70
8
 71
3
 72
8
 73
4
 74
0
 40
0
 40
0
 40
0
 40
0
 40
1
 40
1
 40
1
 40
1
 10
576.163521
 20
481.933531
 30
0.0
 10
578.923064
 20
478.823294
 30
0.0
 10
579.469640
 20
473.323647
 30
0.0
 10
577.389985
 20
469.719509
 30
0.0
  0
LWPOLYLINE
  5
12f
100
AcDbEntity
  8
0
 62
7
100
AcDbPolyline
 90
2
 70
0
 10
515.400256
 20
550.505591
 30
0.0
 10
576.163521
 20
481.933531
 30
0.0
  0
SPLINE
  5
130
100
AcDbEntity
  8
0
 62
7
100
AcDbSpline
 70
8
 71
3
 72
8
 73
4
 74
0
 40
0
 40
0
 40
0
 40
0
 40
1
 40
1
 40
1
 40
1
 10
512.240779
 20
357.043481
 30
0.0
 10
510.161124
 20
353.439343
 30
0.0
 10
505.508562
 20
352.197918
 30
0.0
 10
501.909158
 20
354.280308
 30
0.0
  0
LWPOLYLINE
  5
131
100
AcDbEntity
  8
0
 62
7
100
AcDbPolyline
 90
2
 70
0
 10
577.389985
 20
469.719509
 30
0.0
 10
512.240779
 20
357.043481
 30
0.0
  0
SPLINE
  5
132
100
AcDbEntity
  8
0
 62
7
100
AcDbSpline
 70
8
 71
3
 72
8
 73
4
 74
0
 40
0
 40
0
 40
0
 40
0
 40
1
 40
1
 40
1
 40
1
 10
368.157986
 20
431.542345
 30
0.0
 10
364.558582
 20
433.624736
 30
0.0
 10
358.212967
 20
435.320015
 30
0.0
 10
354.053656
 20
435.320015
 30
0.0
  0
LWPOLYLINE
  5
133
100
AcDbEntity
  8
0
 62
7
100
AcDbPolyline
 90
2
 70
0
 10
501.909158
 20
354.280308
 30
0.0
 10
368.157986
 20
431.542345
 30
0.0
  0
SPLINE
  5
134
100
AcDbEntity
  8
0
 62
7
100
AcDbSpline
 70
8
 71
3
 72
8
 73
4
 74
0
 40
0
 40
0
 40
0
 40
0
 40
1
 40
1
 40
1
 40
1
 10
11.270452
 20
435.320015
 30
0.0
 10
7.111142
 20
435.320015
 30
0.0
 10
3.711705
 20
438.723923
 30
0.0
 10
3.711705
 20
442.888705
 30
0.0
  0
LWPOLYLINE
  5
135
100
AcDbEntity
  8
0
 62
7
100
AcDbPolyline
 90
3
 70
0
 10
354.053656
 20
435.320015
 30
0.0
 10
354.053656
 20
435.320015
 30
0.0
 10
11.270452
 20
435.320015
 30
0.0
  0
SPLINE
  5
136
100
AcDbEntity
  8
0
 62
7
100
AcDbSpline
 70
8
 71
3
 72
8
 73
4
 74
0
 40
0
 40
0
 40
0
 40
0
 40
1
 40
1
 40
1
 40
1
 10
3.711705
 20
791.395485
 30
0.0
 10
3.711705
 20
795.560267
 30
0.0
 10
7.031155
 20
799.711700
 30
0.0
 10
11.083817
 20
800.619408
 30
0.0
  0
LWPOLYLINE
  5
137
100
AcDbEntity
  8
0
 62
7
100
AcDbPolyline
 90
2
 70
0
 10
3.711705
 20
442.888705
 30
0.0
 10
3.711705
 20
791.395485
 30
0.0
  0
SPLINE
  5
138
100
AcDbEntity
  8
0
 62
7
100
AcDbSpline
 70
8
 71
3
 72
8
 73
4
 74
0
 40
0
 40
0
 40
0
 40
0
 40
1
 40
1
 40
1
 40
1
 10
211.823889
 20
845.804618
 30
0.0
 10
215.876551
 20
846.712327
 30
0.0
 10
222.595438
 20
847.459852
 30
0.0
 10
226.754749
 20
847.459852
 30
0.0
  0
LWPOLYLINE
  5
139
100
AcDbEntity
  8
0
 62
7
100
AcDbPolyline
 90
2
 70
0
 10
11.083817
 20
800.619408
 30
0.0
 10
211.823889
 20
845.804618
 30
0.0
  0
SPLINE
  5
13a
100
AcDbEntity
  8
0
 62
7
100
AcDbSpline
 70
8
 71
3
 72
8
 73
4
 74
0
 40
0
 40
0
 40
0
 40
0
 40
1
 40
1
 40
1
 40
1
 10
358.372941
 20
847.459852
 30
0.0
 10
362.532251
 20
847.459852
 30
0.0
 10
368.704562
 20
845.497599
 30
0.0
 10
372.103999
 20
843.081492
 30
0.0
  0
LWPOLYLINE
  5
13b
100
AcDbEntity
  8
0
 62
7
100
AcDbPolyline
 90
2
 70
0
 10
226.754749
 20
847.459852
 30
0.0
 10
358.372941
 20
847.459852
 30
0.0
  0
SPLINE
  5
13c
100
AcDbEntity
  8
0
 62
7
100
AcDbSpline
 70
8
 71
3
 72
8
 73
4
 74
0
 40
0
 40
0
 40
0
 40
0
 40
1
 40
1
 40
1
 40
1
 10
405.805082
 20
819.200741
 30
0.0
 10
409.204518
 20
816.797983
 30
0.0
 10
415.376829
 20
814.835730
 30
0.0
 10
419.536140
 20
814.835730
 30
0.0
  0
LWPOLYLINE
  5
13d
100
AcDbEntity
  8
0
 62
7
100
AcDbPolyline
 90
2
 70
0
 10
372.103999
 20
843.081492
 30
0.0
 10
405.805082
 20
819.200741
 30
0.0
  0
SPLINE
  5
13e
100
AcDbEntity
  8
0
 62
7
100
AcDbSpline
 70
8
 71
3
 72
8
 73
4
 74
0
 40
0
 40
0
 40
0
 40
0
 40
1
 40
1
 40
1
 40
1
 10
472.434042
 20
814.835730
 30
0.0
 10
476.593353
 20
814.835730
 30
0.0
 10
481.899140
 20
812.005814
 30
0.0
 10
484.218756
 20
808.561860
 30
0.0
  0
LWPOLYLINE
  5
13f
100
AcDbEntity
  8
0
 62
7
100
AcDbPolyline
 90
2
 70
0
 10
419.536140
 20
814.835730
 30
0.0
 10
472.434042
 20
814.835730
 30
0.0
  0
SPLINE
  5
140
100
AcDbEntity
  8
0
 62
7
100
AcDbSpline
 70
8
 71
3
 72
8
 73
4
 74
0
 40
0
 40
0
 40
0
 40
0
 40
1
 40
1
 40
1
 40
1
 10
506.175118
 20
775.937739
 30
0.0
 10
508.494733
 20
772.480436
 30
0.0
 10
510.401084
 20
766.259961
 30
0.0
 10
510.401084
 20
762.095180
 30
0.0
  0
LWPOLYLINE
  5
141
100
AcDbEntity
  8
0
 62
7
100
AcDbPolyline
 90
2
 70
0
 10
484.218756
 20
808.561860
 30
0.0
 10
506.175118
 20
775.937739
 30
0.0
  0
LWPOLYLINE
  5
142
100
AcDbEntity
  8
0
 62
7
100
AcDbPolyline
 90
2
 70
0
 10
510.401084
 20
762.095180
 30
0.0
 10
510.401084
 20
563.560579
 30
0.0
  0
ENDSEC
  0
SECTION
  2
OBJECTS
  0
DICTIONARY
  5
C
330
0
100
AcDbDictionary
  3
ACAD_GROUP
350
D
  3
ACAD_MLINESTYLE
350
17
  0
DICTIONARY
  5
D
330
C
100
AcDbDictionary
  0
DICTIONARY
  5
1A
330
C
100
AcDbDictionary
  0
DICTIONARY
  5
17
330
C
100
AcDbDictionary
  3
STANDARD
350
18
  0
DICTIONARY
  5
19
330
C
100
AcDbDictionary
  0
ENDSEC
  0
EOF
